<svg width="290" height="380" viewBox="0 0 290 380" fill="none" xmlns="http://www.w3.org/2000/svg">
<path fill-rule="evenodd" clip-rule="evenodd" d="M283.758 210.319C280.213 210.667 276.669 211.014 273.124 211.361C256.147 212.656 239.177 215.361 222.331 216.985C221.911 216.303 221.09 216.415 220.592 216.889C218.911 216.742 217.027 215.459 215.504 216.793C215.454 216.787 215.405 216.778 215.355 216.774C212.644 211.577 210.77 206.035 208.951 200.485C207.79 197.073 206.228 193.77 203.341 191.479C198.415 188.065 187.128 181.141 181.344 181.432C181.248 180.398 180.765 179.332 179.973 178.643C181.72 175.669 174.734 173.728 174.241 174.073C174.557 164.136 169.876 155.506 159.554 153.527C150.307 151.603 137.155 151.28 132.181 160.93C131.635 160.868 126.047 160.839 125.506 160.9C124.665 159.837 115.433 169.911 119.217 173.418C85.3889 188.361 66.1541 186.578 56.791 228.586C55.5252 232.532 55.433 236.85 54.0964 240.709C49.341 251.797 45.4839 263.603 44.524 275.668C42.2056 276.261 41.939 280.343 44.6244 280.934C45.6502 281.16 46.508 281.468 47.2559 282.053C46.6712 291.94 49.0659 314.525 50.5748 314.455C53.6513 324.232 67.3744 326.992 77.0899 323.556C75.415 326.702 77.0899 328.68 77.0899 330.362C112.049 331.682 150.273 330.922 185.222 332.733C189.692 332.669 194.394 333.829 198.804 333.162C201.493 332.518 201.498 328.296 198.77 327.774L210.689 325.189C210.422 325.089 215.601 321.648 219.516 315.22C223.16 308.029 220.68 299.349 222.331 291.527C235.225 290.474 248.333 290.024 261.087 287.843C262.826 293.038 270.353 286.825 272.746 284.326C272.743 284.322 272.74 284.318 272.737 284.314C273.895 283.998 274.824 282.914 274.855 281.631C275.667 280.472 275.837 278.839 275.058 277.72C278.628 257.154 284.069 236.155 286.036 215.396C286.731 215.242 287.386 214.938 287.941 214.469L287.896 214.424C288.837 213.377 289.02 211.569 287.452 210.68C286.187 209.961 285.131 210.184 283.758 210.319Z" fill="white"/>
<path fill-rule="evenodd" clip-rule="evenodd" d="M132.826 158.689C133.879 156.046 137.44 157.073 137.043 159.85C136.805 161.513 135.893 163.27 135.073 164.728C134.406 165.914 133.645 167.072 132.613 167.962C134.45 169.673 136.357 171.322 138.312 172.887C140.445 174.596 142.689 176.17 145.007 177.617C147.041 178.886 149.166 180.011 151.083 181.459C152.865 182.805 154.488 184.424 155.314 186.538C156.194 188.789 155.812 191.113 155.164 193.363L155.089 193.617C154.427 195.845 153.281 198.532 154.87 200.631C155.679 201.7 156.856 202.457 157.871 203.312C158.774 204.071 159.621 204.897 160.398 205.784C162.092 207.718 163.47 209.894 164.34 212.319L164.418 212.539C165.163 214.686 165.708 217.315 164.701 219.423C164.412 220.027 163.48 219.83 163.318 219.242C162.952 217.91 162.971 216.514 162.664 215.163C162.345 213.757 161.814 212.423 161.12 211.161C159.777 208.719 157.959 206.633 155.811 204.87L155.168 204.348C153.493 202.975 151.953 201.518 151.613 199.245C151.249 196.814 152.225 194.498 152.852 192.196C153.289 190.593 153.432 189.055 152.96 187.606C152.382 188.547 151.595 189.439 150.972 190.236C149.732 191.823 148.48 193.4 147.231 194.98C145.95 196.6 144.701 198.245 143.512 199.934C142.98 200.689 142.454 201.449 141.929 202.209C141.535 202.781 140.985 203.352 140.555 203.935C140.659 204.247 140.651 204.606 140.462 204.862C138.182 207.938 134.938 201.519 134.092 199.897C132.369 196.595 131.087 193.086 129.359 189.785C127.568 186.362 125.528 183.03 123.255 179.906C121.88 178.016 120.339 176.24 119.081 174.29C116.118 176.973 112.218 178.772 108.637 180.403C104.702 182.195 100.613 183.659 96.5787 185.213L95.3869 185.675C88.435 188.384 81.3132 191.361 75.5349 196.173C68.7448 201.828 64.7278 209.709 61.7372 217.871C58.2947 227.267 55.4466 236.916 52.7917 246.56C51.4331 251.494 50.144 256.45 48.9321 261.422C47.8641 265.803 46.9789 270.227 45.7427 274.562C48.2499 274.474 51.1094 275.443 53.2499 275.723C63.0055 276.998 72.6297 279.031 81.8402 282.55C82.9779 282.985 83.307 284.119 83.0593 285.039C83.7154 284.854 84.371 284.666 85.0271 284.483C84.3083 283.383 84.6513 281.416 84.7079 280.197L84.7113 280.114C84.7694 278.489 84.9459 276.863 85.0603 275.242C85.2783 272.151 85.562 269.083 85.9392 266.01L86.0354 265.241C86.4629 261.898 86.7789 258.535 87.2453 255.197L87.3004 254.815C87.0768 253.961 86.8164 253.118 86.5431 252.278C85.8147 250.041 84.7868 247.935 83.8859 245.768C83.7797 245.513 84.1436 245.367 84.3136 245.52C85.8393 246.89 87.0512 248.629 88.0248 250.447C88.0417 250.362 88.0566 250.276 88.0742 250.19L88.1853 249.644C88.4593 248.312 88.7925 246.911 89.6106 245.831C89.6977 245.716 89.87 245.692 89.9524 245.831C90.7353 247.154 90.823 248.829 90.9434 250.335C91.0796 252.038 91.0968 253.762 91.0727 255.47C91.0258 258.807 90.7902 262.154 90.6025 265.486C90.4184 268.76 90.0569 271.992 89.5909 275.234L89.5023 275.842C89.2746 277.385 89.0881 278.947 88.7876 280.48L88.7028 280.897C88.5421 281.657 88.4433 282.729 88.1236 283.619C96.3498 281.328 104.589 279.089 112.843 276.889C118.809 275.299 124.781 273.733 130.751 272.157C131.066 271.59 131.458 271.061 131.948 270.588C133.56 269.028 135.698 268.332 137.658 269.533C137.817 269.631 137.831 269.88 137.658 269.974C137.282 270.179 136.906 270.39 136.537 270.609L140.121 269.639C142.8 268.914 145.512 268.008 148.254 267.503C153.305 265.014 158.737 263.212 164.058 261.432L164.685 261.22C167.409 260.292 170.227 259.254 173.042 258.74C175.103 258.364 177.522 258.818 178.35 260.926C179.399 261.616 180.386 262.427 181.339 263.225C182.027 263.802 182.687 264.415 183.359 265.012L183.482 265.12C184.031 265.596 184.466 265.914 184.601 266.671C184.67 267.062 184.421 267.59 183.939 267.538C182.461 267.381 181.26 265.671 180.258 264.65C179.484 263.86 178.704 263.044 177.997 262.177C177.586 262.401 177.021 262.361 176.759 261.865C175.4 259.295 171.676 261.076 169.615 261.685L166.664 262.558C165.188 262.994 163.713 263.433 162.24 263.88C158.193 265.107 154.166 266.481 150.082 267.608C150.447 268.009 150.397 268.722 149.703 268.994C146.506 270.246 142.999 270.894 139.677 271.753C137.581 272.297 135.485 272.843 133.39 273.392C133.031 273.973 132.772 274.631 132.664 275.396C132.264 278.21 133.035 281.456 133.786 284.177L133.899 284.583C134.517 286.771 135.425 289.453 137.315 290.834C137.777 291.171 138.364 291.406 138.957 291.459C142.657 289.557 146.357 287.655 150.06 285.757C150.746 285.405 151.379 285.881 151.533 286.447C152.839 286.234 154.141 285.896 155.328 285.494C157.321 284.818 158.878 283.529 160.746 282.638C164.362 280.913 168.055 283.031 171.292 284.642L172.038 285.008C173.49 285.712 176.51 287.063 177.207 285.139C177.881 283.278 175.751 281.289 174.375 280.452C172.735 279.453 170.826 278.918 168.972 278.473C167.914 278.219 166.843 278.011 165.765 277.86C164.543 277.688 163.28 277.714 162.103 277.318C161.519 277.122 161.429 276.194 162.103 276.041C163.915 275.629 166.077 276.078 167.968 276.537L168.956 276.78C170.861 277.247 172.784 277.833 174.519 278.764C175.78 279.441 177.112 280.47 177.982 281.729C178.737 281.028 179.677 281.052 180.657 281.312L181.188 281.46C182.066 281.702 182.777 281.87 183.632 281.701C183.746 281.081 183.861 280.46 183.985 279.84C185.202 273.738 186.537 267.66 188.01 261.615C190.55 251.187 193.49 240.874 196.804 230.666L197.137 229.646C197.901 227.311 198.516 224.767 199.748 222.622C200.914 220.594 202.781 219.426 205 218.807C207.517 218.105 210.163 217.738 212.731 217.263C213.304 217.158 213.878 217.057 214.452 216.954C213.967 216.08 213.606 215.088 213.28 214.327L213.223 214.195C212.523 212.602 211.894 210.979 211.287 209.348L210.833 208.122C209.736 205.17 208.605 202.266 207.063 199.505C205.441 196.598 203.288 194.223 200.605 192.256C195.134 188.246 188.54 186.201 183.234 181.916C183.017 181.741 183.295 181.44 183.516 181.551C187.099 183.349 190.967 184.571 194.693 186.035L195.428 186.324C198.374 187.49 201.365 188.76 203.915 190.647C206.757 192.752 208.996 195.366 210.678 198.475C212.336 201.539 213.397 204.969 214.567 208.242L214.88 209.114C215.352 210.422 215.839 211.726 216.398 212.999C216.841 214.009 217.669 215.162 218.045 216.317C219.074 216.138 220.102 215.96 221.132 215.788C243.441 212.069 265.999 209.883 288.607 209.244C289.491 209.219 289.949 210.062 289.818 210.832C287.649 223.643 285.72 236.497 283.605 249.318C282.682 254.913 281.74 260.504 280.776 266.093C280.288 268.924 279.723 271.744 279.261 274.58C278.887 276.87 278.616 279.178 277.975 281.415C277.4 283.42 276.518 285.354 275.069 286.884C273.507 288.534 271.327 289.332 269.133 289.709C263.562 290.667 257.848 291.058 252.232 291.695L222.332 295.092C222.769 299.058 222.802 302.962 222.601 306.974L222.487 309.164C222.394 310.925 222.282 312.69 222.029 314.433C221.711 316.62 220.709 318.472 219.233 320.106C217.878 321.606 216.232 322.886 214.63 324.112C212.968 325.386 211.251 326.615 209.296 327.403L209.043 327.503C207.328 328.172 204.112 329.207 201.768 328.829C202.074 330.361 202.667 332.009 202.142 333.526C201.898 334.23 200.976 334.581 200.411 333.982C199.291 332.794 199.204 331.226 198.939 329.677C198.663 328.064 198.425 326.446 198.214 324.825C197.805 321.689 197.487 318.524 197.39 315.361C197.291 312.114 197.329 308.862 197.504 305.617C197.594 303.951 197.706 302.286 197.918 300.631C198.008 299.925 198.101 299.219 198.206 298.514C198.245 298.257 198.287 298.002 198.333 297.747L195.65 298.049C191.535 298.508 187.418 298.922 183.274 298.987C182.783 298.994 182.405 298.771 182.158 298.446C181.896 298.873 181.438 299.179 180.782 299.177C174.995 299.155 169.606 297.266 164.342 295.039C161.689 293.916 159.077 292.7 156.42 291.587C153.94 290.548 151.288 289.807 148.868 288.636L142.508 291.967C142.461 292.131 142.401 292.286 142.338 292.415C141.924 293.259 141.107 293.717 140.274 294.062C139.473 294.394 138.644 294.497 137.837 294.413C133.013 296.937 128.189 299.459 123.361 301.974L118.532 304.488C108.912 309.49 99.3289 314.574 89.6476 319.458L88.9348 319.816C85.5908 321.491 82.0001 323.188 78.2891 324.454C78.2231 325.392 78.2648 326.305 78.3435 327.297L78.3624 327.514C78.4731 328.687 78.7103 330.157 77.7678 330.992C77.2775 331.426 76.4017 331.428 76.0684 330.773C75.4634 329.586 76.0065 327.713 76.1982 326.423C76.2662 325.964 76.3491 325.493 76.4717 325.035C72.2174 326.3 67.8343 326.913 63.505 326.203C59.2899 325.512 56.0253 322.86 53.3934 319.617C50.6159 316.195 48.6421 312.206 47.5831 307.93C46.3779 303.065 46.2992 298.04 46.3275 293.057C46.3576 287.75 46.5542 282.417 47.2006 277.146C46.4924 276.979 45.7069 276.835 44.9913 276.885C44.6368 277.451 43.9491 277.69 43.3278 277.616C41.9766 279.104 45.4038 280.625 46.4991 281.006C46.8794 281.138 46.8387 281.755 46.4 281.736L46.1237 281.723C44.4314 281.633 42.683 281.345 41.6879 279.774C40.8906 278.516 41.1301 277.024 42.0807 275.998C42.7084 270.071 44.2093 264.299 45.6061 258.517C46.9769 252.841 48.5014 247.203 50.1172 241.592L50.8415 239.081C53.3856 230.284 56.0447 221.417 59.554 212.969C61.3063 208.751 63.325 204.611 66.0613 200.933C68.612 197.505 71.6234 194.571 75.0848 192.065C81.5378 187.394 89.1097 184.571 96.5495 181.882L96.8825 181.762C100.738 180.369 104.584 178.96 108.395 177.451C111.766 176.117 114.996 174.425 118.35 173.071C118.242 172.873 118.136 172.673 118.035 172.471L117.973 172.523C117.962 172.532 117.951 172.54 117.94 172.548C117.603 172.781 117.106 172.666 116.828 172.404C116.043 171.665 116.309 170.844 116.833 170.076L116.901 169.979C117.542 169.082 118.114 168.134 118.705 167.205L119.076 166.624C120.069 165.072 121.112 163.51 122.436 162.227C123.049 161.632 123.72 161.188 124.432 160.856C124.371 160.728 124.904 160.465 125.055 160.598C127.308 159.774 129.901 159.947 132.357 160.174M220.886 295.256L217.753 295.612C214.306 296.003 210.858 296.382 207.41 296.757L199.92 297.57C199.901 297.996 199.849 298.413 199.84 298.735C199.791 300.395 199.754 302.056 199.72 303.717C199.65 307.045 199.726 310.377 199.946 313.699C200.159 316.918 200.439 320.137 200.874 323.335L200.963 323.974L201.015 324.31C201.37 324.344 201.719 324.513 202.009 324.859C202.643 325.614 204.937 324.88 205.833 324.562C207.306 324.038 208.693 323.154 209.973 322.267C211.224 321.401 212.349 320.391 213.431 319.327L214.316 318.453C215.197 317.58 216.078 316.649 216.618 315.55C217.349 314.06 217.444 312.23 217.658 310.607C217.922 308.611 218.237 306.615 218.569 304.628M129.942 274.3L129.617 274.385C117.813 277.517 106.026 280.742 94.1862 283.735C88.3267 285.217 82.4395 286.591 76.5728 288.044L75.623 288.282C70.9949 289.45 66.3111 290.855 62.767 294.207C62.6362 294.331 62.4463 294.141 62.5694 294.01C66.3891 289.95 71.8215 288.231 77.0375 286.741C78.0017 286.466 78.9671 286.197 79.9315 285.923C72.8378 283.398 65.6322 281.201 58.2602 279.634C56.3619 279.23 54.4415 278.934 52.5447 278.529C51.2219 278.246 49.93 277.838 48.6212 277.499L47.5916 277.24L47.578 280.489C47.5608 285.091 47.569 289.689 47.8041 294.291L47.8486 295.143C48.1229 300.264 48.5511 305.49 50.3709 310.319C51.8497 314.242 54.2067 317.938 57.2891 320.796C58.8488 322.242 60.5256 323.367 62.5984 323.923C64.523 324.439 66.5395 324.5 68.518 324.362C78.0079 323.701 86.4555 318.553 94.699 314.291C108.183 307.32 121.668 300.352 135.165 293.408C134.8 293.159 134.457 292.872 134.144 292.549C132.334 290.683 131.379 288.128 130.752 285.653C130.085 283.019 129.686 280.196 129.639 277.477M147.116 296.099C147.235 296.035 147.373 296.115 147.378 296.249C147.42 297.279 146.85 298.294 146.425 299.221L146.38 299.32C145.863 300.469 145.296 301.602 144.711 302.718C143.54 304.947 142.324 307.151 141.054 309.325C138.502 313.698 135.665 317.887 132.311 321.694C131.554 322.554 130.308 321.451 130.794 320.525C133.138 316.061 135.87 311.846 138.682 307.667C140.089 305.575 141.496 303.481 142.918 301.398C143.511 300.529 144.112 299.663 144.729 298.811L145.101 298.301M287.112 211.801C275.266 212.158 263.435 212.93 251.646 214.138C240.682 215.263 229.759 216.759 218.897 218.625C216.628 219.014 214.362 219.42 212.099 219.841L210.742 220.096C208.478 220.525 205.713 220.701 203.698 221.909C201.573 223.182 200.999 225.842 200.292 228.036C199.461 230.616 198.651 233.203 197.863 235.796C194.733 246.094 191.874 256.481 189.324 266.937C188.058 272.127 186.934 277.345 185.751 282.554C184.699 287.182 183.539 291.758 182.327 296.339C182.476 296.223 182.659 296.135 182.881 296.088C188.9 294.809 195.044 294.253 201.153 293.547L201.745 293.478C208.065 292.736 214.384 291.999 220.708 291.289L262.576 286.588C265.045 286.31 267.69 286.273 270.093 285.611C274.179 284.486 275.136 279.925 275.822 276.293L275.843 276.183C277.909 265.208 279.554 254.139 281.482 243.136M183.301 283.582C181.676 283.475 179.451 281.988 178.218 282.095C178.865 283.179 179.157 284.417 178.784 285.738C177.746 289.414 173.05 287.512 170.788 286.389C168.933 285.468 167.142 284.34 165.089 283.909C162.763 283.42 161.187 284.344 159.222 285.409C157.608 286.283 155.851 286.911 154.043 287.236C153.082 287.409 152.169 287.427 151.257 287.36C151.203 287.404 151.141 287.446 151.07 287.483L150.588 287.735C152.768 287.835 154.988 288.507 157.017 289.122C159.119 289.759 161.183 290.527 163.235 291.312L165.255 292.087C170.236 293.992 175.392 295.8 180.782 295.784C181.17 295.783 181.487 295.891 181.737 296.065M174.207 272.062C175.813 271.866 177.295 272.076 178.578 273.12C180.126 274.378 181.165 276.466 183.39 276.603C184.039 276.643 184.189 277.554 183.545 277.744C181.889 278.234 180.548 277.339 179.42 276.178L178.661 275.386C177.546 274.233 176.518 273.342 174.626 273.411C172.6 273.485 170.57 273.952 168.557 274.19C166.277 274.459 163.997 274.689 161.709 274.887C161.603 274.896 161.585 274.729 161.685 274.704L164.247 274.068M172.656 265.506L172.921 265.48C175.253 265.254 177.386 265.245 179.468 266.498L179.868 266.739C181.746 267.878 183.789 269.221 184.963 271.066C185.156 271.368 184.838 271.723 184.517 271.647C182.26 271.106 180.61 269.452 178.712 268.215C176.582 266.826 174.382 267.055 171.954 267.271C169.602 267.48 167.252 267.767 164.924 268.158C162.736 268.526 160.542 269.106 158.332 269.291L158.332 269.286C158.08 269.286 157.936 268.907 158.193 268.779C160.436 267.661 163.033 267.131 165.473 266.621M243.495 242.492C243.27 241.415 244.596 240.916 245.211 241.77L245.341 241.95C246.669 243.767 248.59 246.046 248.492 248.357C249.659 248.382 250.869 249.09 251.324 250.142C251.534 250.629 251.606 251.205 251.559 251.802C252.62 251.884 253.777 252.58 254.426 253.257C255.501 254.38 255.586 255.966 254.815 257.278C253.133 260.137 249.459 261.178 246.358 261.41L246.247 261.418C243.044 261.639 238.428 261.579 236.232 258.835C234.113 256.188 236.455 254.045 238.856 252.881C238.231 252.311 237.907 251.494 238.212 250.632C238.746 249.117 240.633 248.532 241.699 247.479C242.999 246.195 243.858 244.434 243.515 242.592M245.256 244.82C244.903 246.353 244.035 247.755 242.826 248.866C242.364 249.29 241.858 249.669 241.321 249.994L241.257 250.031C240.78 250.298 239.608 250.799 239.698 251.399C239.791 252.015 241.7 252.979 242.22 252.98C242.339 252.98 242.406 253.165 242.285 253.218C241.342 253.634 240.518 253.812 239.596 253.373C238.98 254.001 238.381 254.651 237.789 255.295C236.74 256.435 237.099 257.639 238.338 258.488C240.328 259.851 243.354 259.818 245.676 259.719C248.013 259.619 250.512 259.099 252.338 257.544L252.417 257.475C253.41 256.594 254.316 255.1 252.796 254.252C252.201 253.919 251.558 253.939 250.993 253.777C250.464 254.812 249.607 255.641 248.56 255.801C247.714 255.93 247.132 254.869 247.901 254.361L248.074 254.254C249.04 253.638 249.865 252.69 249.843 251.454C249.828 250.597 248.629 249.514 247.848 250.32L247.812 250.358C247.158 251.094 246.007 250.167 246.437 249.352L246.458 249.315M92.8072 202.19C92.8043 202.005 93.0637 201.936 93.1543 202.096C94.6715 204.761 95.4646 208.029 96.2729 210.965C97.1194 214.041 97.8028 217.149 98.4167 220.279C99.6601 226.618 100.323 232.92 100.368 239.38C100.374 240.302 98.869 240.548 98.7218 239.603C97.7445 233.319 96.8081 227.028 95.8234 220.746C95.3279 217.586 94.7512 214.439 94.1994 211.288M107.828 206.832C107.716 206.465 108.252 206.342 108.389 206.678C111.434 214.141 112.465 222.599 110.51 230.473C110.211 231.678 108.444 231.156 108.67 229.967M147.104 200.2C147.088 199.925 147.446 199.882 147.581 200.071C149.023 202.101 149.622 204.82 152.153 205.869C153.417 206.392 154.839 206.301 155.956 207.186C156.702 207.778 157.275 208.712 156.714 209.608C156.534 209.897 156.028 210.042 155.783 209.728C155.425 209.269 155.235 208.721 154.749 208.377C154.063 207.892 153.138 207.862 152.352 207.635C151.334 207.34 150.438 206.825 149.703 206.059M171.207 166.344C171.356 166.268 171.499 166.317 171.594 166.445C171.729 166.628 171.713 166.806 171.546 166.932C171.769 167.385 172.031 168.521 172.069 168.686C172.22 169.356 172.382 170.023 172.551 170.688C172.892 172.031 173.191 173.384 173.532 174.728C173.894 176.151 174.326 177.56 174.805 178.948C174.836 179.038 174.87 179.13 174.906 179.223L174.961 179.364L174.974 179.343C175.072 179.189 175.275 179.296 175.251 179.459C175.228 179.607 175.198 179.755 175.173 179.903L175.223 180.036C175.537 180.879 175.752 181.768 175.176 182.512C174.961 182.79 174.724 182.955 174.428 183.004C173.955 184.563 173.36 186.094 172.724 187.563L172.538 187.992C171.602 190.136 170.604 192.252 169.113 194.078C167.487 196.071 165.249 197.432 163.831 199.615C163.172 200.631 162.713 201.699 162.341 202.847L162.201 203.282C161.937 204.093 161.632 204.88 160.869 205.356C160.626 205.508 160.262 205.459 160.066 205.252C158.502 203.601 160.139 200.518 161.081 198.919C162.392 196.696 164.288 195.274 166.187 193.597C168.233 191.789 169.539 189.371 170.802 186.989C171.575 185.529 172.322 184.038 173.108 182.572C172.287 181.847 172.024 180.407 171.746 179.407L171.72 179.317C171.26 177.714 170.895 176.07 170.664 174.418C170.442 172.83 170.349 171.265 170.408 169.668L170.425 169.261M174.261 173.902C174.08 173.654 174.38 173.373 174.629 173.424C176.143 173.737 177.623 174.652 178.981 175.392L179.126 175.47C180.211 176.054 181.302 176.77 181.872 177.904C182.491 179.137 182.44 180.558 182.356 181.898L182.348 182.023C182.244 183.63 182.227 185.3 181.887 186.878C181.713 187.685 180.98 187.913 180.354 187.722C179.609 190.072 177.515 191.803 175.986 193.657C174.036 196.021 174.403 199.212 174.607 202.059C174.689 203.212 173.254 203.54 172.514 202.925L170.81 201.511C170.526 201.275 170.243 201.039 169.96 200.802C169.718 200.598 169.478 200.393 169.24 200.186L168.885 199.872C168.727 199.731 168.032 198.956 167.828 198.924C167.336 198.845 166.166 200.141 165.766 200.548L165.715 200.599C164.961 201.336 164.28 202.13 163.646 202.972C163.529 203.127 163.301 202.999 163.385 202.82C163.953 201.604 164.614 200.442 165.398 199.354L165.557 199.138C166.079 198.435 166.78 197.195 167.701 196.987C168.826 196.734 169.95 197.861 170.769 198.486L170.82 198.525C171.21 198.817 171.595 199.114 171.979 199.413C171.939 197.294 172.207 195.152 173.303 193.325C174.076 192.037 175.234 191.083 176.224 189.976C177.327 188.743 177.903 187.228 178.902 185.944C179.03 185.779 179.207 185.69 179.399 185.662C179.438 184.63 179.59 183.588 179.708 182.567L179.742 182.261C179.861 181.152 180.142 179.797 179.598 178.758C179.084 177.777 177.905 177.084 177.032 176.418L176.319 175.866M125.131 162.173C124.675 162.436 124.249 162.764 123.863 163.173C122.646 164.462 121.776 166.066 120.93 167.608C120.474 168.439 120.035 169.279 119.575 170.108C119.375 170.469 119.17 170.826 118.962 171.182C118.866 171.346 118.58 171.672 118.439 171.873C118.596 172.093 118.759 172.31 118.925 172.524C118.988 172.606 123.352 177.353 124.873 179.211C127.203 182.057 129.285 185.063 131.065 188.28C132.808 191.431 134.135 194.767 135.75 197.979C136.558 199.587 137.461 201.183 138.612 202.575C138.656 202.629 138.703 202.681 138.748 202.734C139.188 201.55 140.313 200.281 140.865 199.553L140.917 199.484C142.17 197.797 143.494 196.161 144.846 194.552C146.082 193.084 147.348 191.647 148.646 190.233L149.133 189.704C150.037 188.729 151.185 187.271 152.509 186.574C152.367 186.322 152.203 186.072 152.014 185.826C150.774 184.208 149.022 183.034 147.293 181.975L146.171 181.294C141.944 178.722 137.783 176.03 134.114 172.688C132.172 170.92 130.257 169.067 128.625 167.005L128.048 166.276M132.184 160.9C130.204 161.066 128.067 161.026 126.238 161.67C127.864 163.205 129.41 164.863 130.998 166.424C131.139 165.368 131.428 164.325 131.673 163.296" fill="black"/>
<path fill-rule="evenodd" clip-rule="evenodd" d="M152.429 63.2737C166.524 63.2737 181.104 74.1834 186.27 81.1452C190.614 86.9983 192.953 113.466 192.953 131.353C192.953 135.094 195.021 142.146 194.417 145.724C192.206 158.837 182.574 169.834 163.51 169.834C144.445 169.834 130.776 162.288 116.606 142.028C109.731 142.028 106.399 136.763 106.35 128.455C106.302 120.146 112.987 117.123 112.987 117.123C112.987 117.123 110.603 84.3339 116.606 75.7971C122.609 67.2604 138.334 63.2737 152.429 63.2737Z" fill="white"/>
<path fill-rule="evenodd" clip-rule="evenodd" d="M146.498 58.6375C155.397 57.7377 164.118 58.4937 172.888 60.0581C173.558 60.1793 173.938 60.6183 174.079 61.146C178.21 61.3344 182.346 61.6371 186.471 61.8626C187.969 61.9444 188.817 63.4216 188.135 64.7554C187.998 65.0204 187.857 65.2782 187.713 65.536L187.893 65.4764C189.135 65.0789 190.475 64.8829 191.684 65.5139C193.224 66.317 193.827 68.0891 193.487 69.7202C193.4 70.1366 193.254 70.5357 193.087 70.9251C193.425 70.9028 193.765 70.9103 194.103 70.9549C195.9 71.1928 197.235 72.5686 197.33 74.4004C197.469 77.1665 195.684 79.9728 193.581 81.9531C193.886 82.5804 194.003 83.3191 193.876 84.0677C193.623 85.5476 192.531 86.4337 191.266 87.0118C191.794 88.6852 192.043 90.4348 191.896 92.2227C191.847 92.8196 191.324 93.3127 190.772 93.4336C192.829 99.0888 193.87 105.16 194.619 111.076C195.153 115.286 195.416 119.52 195.448 123.761C195.463 125.675 195.432 127.592 195.351 129.507L195.319 130.225C195.22 132.295 195.215 134.469 194.842 136.517C196.113 138.675 196.625 141.355 196.841 143.774C197.109 146.769 196.684 149.857 195.738 152.706C192.168 163.468 181.395 170.26 170.574 172.025C160.558 173.659 148.968 171.46 143.114 162.375C143.022 162.231 143.218 162.113 143.333 162.207C147.52 165.608 152.378 167.125 157.656 167.863C166.781 169.138 177.038 166.976 184.361 161.245C187.876 158.494 190.411 154.488 191.526 150.177C192.094 147.974 192.29 145.676 192.067 143.408C191.838 141.107 190.818 139.144 190.175 136.97C189.959 136.236 190.188 135.555 190.637 135.069C190.763 133.304 191.062 131.524 191.176 129.764C191.302 127.764 191.379 125.763 191.407 123.761C191.459 119.606 191.285 115.444 190.935 111.307C190.295 103.732 188.594 96.3403 187.596 88.8293C187.227 89.1602 186.697 89.296 186.142 89.0069L186.084 88.9755L185.782 88.8022C185.764 88.8022 185.744 88.8047 185.727 88.8069C183.654 89.008 181.504 88.7204 179.518 88.103C177.44 87.4587 175.512 86.4672 173.789 85.146C173.461 86.8041 173.325 88.4797 173.322 90.1703C173.32 91.2263 172.2 91.7743 171.312 91.3232C167.372 89.325 163.609 87.0225 160.037 84.4346C159.619 86.5688 159.203 88.7028 158.783 90.8396C158.622 91.6628 157.571 91.9949 156.899 91.6033C154.223 90.0488 151.912 88.014 150.03 85.5944C149.654 86.3118 149.278 87.029 148.898 87.7447L148.327 88.8169C147.764 89.8704 147.009 91.0356 145.775 91.3725C144.47 91.7294 143.38 90.8844 142.94 89.7043C142.806 89.3377 142.682 88.9606 142.568 88.5814C141.456 91.1174 140.2 93.5962 138.78 95.961C136.65 99.5079 134.093 102.668 131.544 105.911C130.769 106.895 129.444 105.955 129.337 104.999C129.275 104.436 129.223 103.871 129.178 103.308C127.692 106.301 126.142 109.267 124.454 112.146L124.695 113.092V113.092C125.392 115.888 125.971 118.703 126.6 121.514C126.803 122.42 126.32 123.717 125.259 123.871C123.992 124.056 122.793 124.702 121.494 124.258C120.079 123.772 119.799 122.55 119.131 121.392C118.997 121.161 118.842 120.95 118.675 120.748L118.633 120.803V120.803C118.529 120.94 118.28 120.791 118.342 120.635L118.415 120.455V120.455C117.841 119.846 117.154 119.338 116.522 118.792C115.021 118.54 113.332 118.816 112.297 119.425C109.942 120.813 108.86 123.674 108.837 126.304C108.81 129.383 109.765 132.843 111.379 135.476C112.089 136.633 113.062 137.679 114.348 138.192C115.624 138.703 117.007 138.544 118.305 139.025C119.164 139.345 119.693 140.297 119.174 141.159C119.139 141.219 119.099 141.273 119.062 141.33L119.448 141.842C119.714 142.197 119.991 142.576 120.249 142.971C120.909 143.73 121.604 144.461 122.277 145.207C123.52 146.583 124.727 147.996 125.951 149.391C127.105 150.708 128.327 151.944 129.585 153.162C130.774 154.314 132.259 155.283 133.351 156.513C134.413 157.713 134.701 159.807 132.953 160.502C131.02 161.272 129.308 159.467 128.006 158.264L127.952 158.213C125.566 156.021 123.411 153.515 121.7 150.757C120.005 151.909 117.553 152.019 115.865 150.867C114.977 150.261 114.296 149.242 113.965 148.134C113.652 148.204 113.34 148.245 113.036 148.24C112.879 148.331 112.722 148.419 112.563 148.502C111.305 149.156 109.758 148.864 109.182 147.473C108.658 146.21 109.198 144.776 109.671 143.56L109.768 143.308C110.036 142.615 110.332 141.858 110.699 141.147C109.676 140.379 108.802 139.424 108.063 138.339C105.578 134.682 104.337 129.335 104.885 124.973C105.215 122.34 106.454 119.614 108.482 117.839L108.408 117.645V117.645C107.839 116.205 107.323 114.76 106.988 113.238C106.596 111.458 106.404 109.614 106.231 107.802C105.863 103.975 105.963 100.061 106.452 96.2486C107.37 89.0724 109.699 82.0277 113.832 76.0562C112.66 74.6555 111.732 73.0071 112.216 71.111C112.437 70.2407 112.94 69.4155 113.7 68.9171C114.12 68.6422 114.619 68.6 115.038 68.372L115.164 68.3026C115.349 68.1952 115.208 68.2066 115.098 67.7076C114.663 65.7144 115.023 63.7887 117.22 63.1268C119.288 62.5046 121.244 63.8258 122.468 65.3999C125.67 63.1315 129.89 61.9444 133.602 60.9356C137.822 59.7926 142.151 59.0789 146.498 58.6375ZM111.908 125.491C111.893 123.867 113.435 122.866 114.952 123.131C115.97 123.308 116.82 123.915 117.618 124.543L118.007 124.85C118.978 125.612 120.094 126.433 120.673 127.511C121.522 129.103 119.728 131.244 118.052 130.129C116.903 129.359 116.166 128.127 115.412 126.982L115.334 126.864C114.991 126.351 114.691 125.806 114.221 125.394L114.12 125.305C113.966 125.174 113.8 125.054 113.601 124.997C113.216 124.887 112.505 125.042 112.335 125.499L112.32 125.545C112.258 125.776 111.911 125.726 111.908 125.491Z" fill="black"/>
<path fill-rule="evenodd" clip-rule="evenodd" d="M168.204 150.445C166.535 149.765 165.046 148.631 163.958 147.183C163.579 146.679 163.481 146.147 163.56 145.661C163.65 145.114 163.974 144.619 164.416 144.286C164.859 143.953 165.413 143.788 165.949 143.872C166.415 143.945 166.879 144.2 167.246 144.728L167.322 144.833C167.969 145.708 168.813 146.425 169.774 146.887C170.7 147.333 171.736 147.541 172.807 147.42C174.849 147.19 176.256 146.087 177.752 144.59C177.937 144.401 178.122 144.206 178.309 144.008C178.427 143.828 178.59 143.713 178.771 143.653C178.973 143.585 179.201 143.589 179.409 143.662C179.61 143.732 179.79 143.865 179.911 144.042C180.026 144.21 180.091 144.417 180.07 144.656C179.933 146.208 179.12 147.593 177.966 148.68C176.685 149.887 174.986 150.723 173.387 151.016C171.625 151.338 169.829 151.107 168.204 150.445V150.445ZM174.218 126.51C176.093 127.648 178.949 130.301 176.932 133.121C174.558 135.608 171.141 132.757 169.457 131.467C167.895 130.468 166.141 133.038 167.589 134.205C179.759 143.202 184.698 126.807 175.166 125.172C174.117 124.992 173.727 126.158 174.218 126.51ZM152.41 116.044C152.617 113.477 156.532 112.894 156.922 115.434C157.271 117.71 156.86 119.8 155.834 121.849C154.853 123.806 152.388 122.893 152.201 121.111C151.951 118.722 152.281 117.641 152.41 116.044ZM182.214 114.908C182.76 114.194 183.548 113.706 184.493 113.982C187.443 114.843 186.574 119.025 185.537 121.061C184.974 122.167 183.155 122.447 182.332 121.473C180.992 119.886 180.35 116.716 182.054 115.152C182.1 115.071 182.151 114.99 182.214 114.908ZM155.792 104.811L156.258 104.73C157.7 104.481 159.492 104.242 160.512 105.399C161.053 106.013 161.239 107.153 160.512 107.741C159.233 108.775 157.819 108.374 156.287 108.461C155.024 108.534 153.81 108.743 152.593 109.09C149.924 109.852 147.749 111.242 145.47 112.769C145.171 112.969 144.865 112.587 145.008 112.308C146.324 109.734 148.874 107.62 151.429 106.331C152.792 105.644 154.284 105.073 155.792 104.811ZM179.525 103.658L179.882 103.731C183.764 104.541 188.807 106.16 190.645 109.967C190.715 110.506 190.641 110.621 190.581 110.696L190.561 110.721C190.511 110.786 190.472 110.875 190.238 110.948C190.173 110.932 190.108 110.916 190.042 110.899C189.199 110.678 188.532 110.374 187.887 110.059L187.187 109.715C186.375 109.317 185.556 108.934 184.688 108.652C182.836 108.048 180.93 107.623 178.996 107.396C178.576 107.347 178.172 107.206 177.854 106.964C177.551 106.734 177.32 106.415 177.215 105.992C177.078 105.445 177.118 105.03 177.412 104.536C177.633 104.165 177.95 103.908 178.313 103.76C178.684 103.61 179.106 103.574 179.525 103.658Z" fill="black"/>
</svg>
